# xmcd
#
# Track frame offsets:
#	150
#	23990
#	39809
#	56900
#	75349
#	100064
#	121712
#	137702
#	160451
#	176293
#	203878
#	235721
#	256950
#	263619
#
# Disc length: 3727 seconds
#
# Revision: 1
# Processed by: cddbd v1.5.2PL0 Copyright (c) Steve Scherf et al.
# Submitted via: audiograbber 1.83.01
#
DISCID=a90e8d0e
DTITLE=souad massi - mesk elil
DYEAR=2006
DGENRE=
TTITLE0=MESK ELIL
TTITLE1=KILYOUM
TTITLE2=ILHAM
TTITLE3=MANENSA ASLI
TTITLE4=DAR DGEDI
TTITLE5=DENYA WEZMEN
TTITLE6=TELL ME WHY
TTITLE7=HAGDA WALA AKTER
TTITLE8=KHALOUNI
TTITLE9=MALOU
TTITLE10=MAHLI
TTITLE11=FEHRA - MABINI OUBONEK SOUR
TTITLE12=TALIT EL BIR
TTITLE13=POUR QUI
EXTD=
EXTT0=
EXTT1=
EXTT2=
EXTT3=
EXTT4=
EXTT5=
EXTT6=
EXTT7=
EXTT8=
EXTT9=
EXTT10=REMIX
EXTT11=
EXTT12=
EXTT13=DUA AVE GAD ELMALEH
PLAYORDER=
